<svg width="257" height="35" viewBox="0 0 257 35" fill="none" xmlns="http://www.w3.org/2000/svg">
<path d="M147.64 14.6055C147.012 14.6055 146.416 14.6105 145.824 14.6055C145.487 14.6004 145.238 14.4446 145.09 14.1531C144.947 13.8767 144.977 13.6003 145.161 13.344C145.319 13.1128 145.554 13.0073 145.834 13.0022C146.615 13.0022 147.4 12.9972 148.18 13.0022C148.665 13.0073 148.955 13.2384 149.073 13.7058C149.287 14.5301 149.491 15.3593 149.71 16.2187C149.807 16.2187 149.909 16.2187 150.006 16.2187C155.106 16.2187 160.2 16.2187 165.3 16.2187C166.417 16.2187 167.217 17.2189 166.947 18.2844C166.325 20.752 165.698 23.2147 165.071 25.6823C164.851 26.5468 164.158 27.0695 163.245 27.0695C159.583 27.0695 155.922 27.0695 152.26 27.0695C151.306 27.0695 150.633 26.5468 150.404 25.6321C149.736 22.9885 149.062 20.3449 148.394 17.7014C148.134 16.6811 147.895 15.6559 147.64 14.6055Z" fill="#2A79CC"/>
<path d="M154.891 31.1052C154.886 32.1506 154.014 32.9999 152.953 32.9949C151.898 32.9899 151.026 32.1304 151.026 31.0901C151.026 30.0347 151.908 29.1753 152.979 29.1853C154.04 29.2004 154.896 30.0598 154.891 31.1052Z" fill="#2A79CC"/>
<path d="M162.648 29.1904C163.709 29.1954 164.576 30.0498 164.576 31.0951C164.576 32.1506 163.694 33.01 162.623 32.9999C161.567 32.9899 160.705 32.1304 160.705 31.0851C160.715 30.0397 161.592 29.1853 162.648 29.1904Z" fill="#2A79CC"/>
<path d="M184.68 24.048C184.968 23.8027 185.283 23.536 185.624 23.248C185.976 22.9493 186.301 22.6293 186.6 22.288C186.909 21.9467 187.171 21.5893 187.384 21.216C187.597 20.832 187.709 20.416 187.72 19.968C187.741 19.2853 187.544 18.7627 187.128 18.4C186.712 18.0267 186.163 17.84 185.48 17.84C184.936 17.84 184.461 17.952 184.056 18.176C183.651 18.4 183.384 18.7253 183.256 19.152H181.768C181.843 18.7147 181.997 18.336 182.232 18.016C182.477 17.6853 182.771 17.4133 183.112 17.2C183.464 16.9867 183.848 16.8267 184.264 16.72C184.68 16.6133 185.107 16.56 185.544 16.56C186.067 16.56 186.547 16.6347 186.984 16.784C187.421 16.9227 187.8 17.1307 188.12 17.408C188.44 17.6853 188.685 18.032 188.856 18.448C189.037 18.8533 189.128 19.3173 189.128 19.84C189.128 20.3627 189.048 20.832 188.888 21.248C188.739 21.664 188.531 22.048 188.264 22.4C188.008 22.752 187.715 23.0827 187.384 23.392C187.053 23.7013 186.712 24.0107 186.36 24.32L183.496 26.736H189.256V28H181.48V26.848L184.68 24.048ZM193.977 24.048C194.265 23.8027 194.58 23.536 194.921 23.248C195.273 22.9493 195.598 22.6293 195.897 22.288C196.206 21.9467 196.468 21.5893 196.681 21.216C196.894 20.832 197.006 20.416 197.017 19.968C197.038 19.2853 196.841 18.7627 196.425 18.4C196.009 18.0267 195.46 17.84 194.777 17.84C194.233 17.84 193.758 17.952 193.353 18.176C192.948 18.4 192.681 18.7253 192.553 19.152H191.065C191.14 18.7147 191.294 18.336 191.529 18.016C191.774 17.6853 192.068 17.4133 192.409 17.2C192.761 16.9867 193.145 16.8267 193.561 16.72C193.977 16.6133 194.404 16.56 194.841 16.56C195.364 16.56 195.844 16.6347 196.281 16.784C196.718 16.9227 197.097 17.1307 197.417 17.408C197.737 17.6853 197.982 18.032 198.153 18.448C198.334 18.8533 198.425 19.3173 198.425 19.84C198.425 20.3627 198.345 20.832 198.185 21.248C198.036 21.664 197.828 22.048 197.561 22.4C197.305 22.752 197.012 23.0827 196.681 23.392C196.35 23.7013 196.009 24.0107 195.657 24.32L192.793 26.736H198.553V28H190.777V26.848L193.977 24.048ZM203.455 28H202.063V18.928H199.759V17.984C200.079 17.9627 200.373 17.936 200.639 17.904C200.906 17.8613 201.151 17.792 201.375 17.696C201.599 17.6 201.802 17.472 201.983 17.312C202.165 17.152 202.33 16.944 202.479 16.688H203.455V28ZM219.458 16.688V24.48H220.786V25.744H219.458V28H218.066V25.744H211.922V24.704L217.458 16.688H219.458ZM213.602 24.48H218.066V17.952L213.602 24.48ZM223.647 22.384C224.01 21.8293 224.468 21.424 225.023 21.168C225.578 20.912 226.164 20.784 226.783 20.784C227.359 20.784 227.866 20.8747 228.303 21.056C228.751 21.2373 229.135 21.4827 229.455 21.792C229.775 22.1013 230.026 22.4747 230.207 22.912C230.388 23.3493 230.479 23.8347 230.479 24.368C230.479 24.9333 230.383 25.4453 230.191 25.904C229.999 26.3627 229.732 26.7573 229.391 27.088C229.05 27.4187 228.639 27.6747 228.159 27.856C227.69 28.0373 227.178 28.128 226.623 28.128C225.834 28.128 225.167 27.9893 224.623 27.712C224.079 27.424 223.636 27.0453 223.295 26.576C222.954 26.096 222.703 25.5413 222.543 24.912C222.394 24.2827 222.314 23.6213 222.303 22.928C222.303 22.064 222.367 21.28 222.495 20.576C222.623 19.8613 222.852 19.2107 223.183 18.624C223.524 18.0267 223.988 17.536 224.575 17.152C225.162 16.7573 225.908 16.56 226.815 16.56C227.22 16.56 227.61 16.6133 227.983 16.72C228.356 16.8267 228.698 16.9867 229.007 17.2C229.316 17.4027 229.588 17.6587 229.823 17.968C230.058 18.2773 230.239 18.6293 230.367 19.024H228.911C228.719 18.6293 228.426 18.3307 228.031 18.128C227.636 17.9253 227.226 17.824 226.799 17.824C226.191 17.824 225.684 17.968 225.279 18.256C224.874 18.544 224.548 18.912 224.303 19.36C224.068 19.808 223.898 20.304 223.791 20.848C223.695 21.3813 223.647 21.8933 223.647 22.384ZM229.055 24.512C229.055 24.16 228.996 23.84 228.879 23.552C228.762 23.2533 228.596 22.9973 228.383 22.784C228.18 22.56 227.93 22.3893 227.631 22.272C227.332 22.144 227.007 22.08 226.655 22.08C226.314 22.08 225.988 22.1387 225.679 22.256C225.38 22.3627 225.114 22.5227 224.879 22.736C224.644 22.9387 224.452 23.1893 224.303 23.488C224.164 23.7867 224.095 24.1173 224.095 24.48C224.095 24.8213 224.159 25.136 224.287 25.424C224.415 25.712 224.591 25.9627 224.815 26.176C225.039 26.3893 225.3 26.56 225.599 26.688C225.908 26.8053 226.239 26.864 226.591 26.864C226.943 26.864 227.268 26.8053 227.567 26.688C227.876 26.56 228.138 26.3947 228.351 26.192C228.575 25.9787 228.746 25.728 228.863 25.44C228.991 25.152 229.055 24.8427 229.055 24.512ZM232.656 22.912L233.168 16.688H239.936V17.968H234.416L234.096 21.52C234.384 21.2853 234.736 21.0987 235.152 20.96C235.568 20.8107 236.08 20.736 236.688 20.736C237.232 20.736 237.728 20.8213 238.176 20.992C238.624 21.1627 239.008 21.408 239.328 21.728C239.648 22.0373 239.893 22.416 240.064 22.864C240.245 23.312 240.336 23.808 240.336 24.352C240.336 24.9493 240.229 25.4827 240.016 25.952C239.813 26.4107 239.53 26.8053 239.168 27.136C238.805 27.4667 238.373 27.7173 237.872 27.888C237.381 28.0587 236.848 28.144 236.272 28.144C235.802 28.144 235.349 28.0907 234.912 27.984C234.485 27.8773 234.096 27.7173 233.744 27.504C233.392 27.28 233.093 26.9973 232.848 26.656C232.602 26.3147 232.432 25.9093 232.336 25.44H233.744C233.829 25.664 233.957 25.8667 234.128 26.048C234.298 26.2187 234.49 26.368 234.704 26.496C234.928 26.6133 235.162 26.704 235.408 26.768C235.653 26.832 235.898 26.864 236.144 26.864C236.528 26.864 236.885 26.816 237.216 26.72C237.557 26.624 237.85 26.48 238.096 26.288C238.352 26.0853 238.549 25.8347 238.688 25.536C238.826 25.2267 238.896 24.8587 238.896 24.432C238.896 23.6533 238.661 23.056 238.192 22.64C237.722 22.224 237.114 22.016 236.368 22.016C235.92 22.016 235.504 22.096 235.12 22.256C234.746 22.416 234.405 22.6347 234.096 22.912H232.656ZM246.46 25.264H248.012V23.968H246.46V22.688H248.012V16.688H251.932C253.19 16.688 254.166 16.9707 254.86 17.536C255.564 18.0907 255.916 19.008 255.916 20.288C255.916 20.9173 255.809 21.4667 255.596 21.936C255.393 22.3947 255.105 22.7787 254.732 23.088C254.369 23.3867 253.932 23.6107 253.42 23.76C252.918 23.8987 252.369 23.968 251.772 23.968H249.404V25.264H253.26V26.528H249.404V28H248.012V26.528H246.46V25.264ZM251.788 22.688C252.161 22.688 252.508 22.6453 252.828 22.56C253.158 22.464 253.446 22.3253 253.692 22.144C253.937 21.952 254.129 21.7067 254.268 21.408C254.417 21.1093 254.497 20.7307 254.508 20.272C254.508 19.4293 254.289 18.832 253.852 18.48C253.425 18.128 252.774 17.952 251.9 17.952H249.404V22.688H251.788Z" fill="#2F2421"/>
<rect x="159" y="1" width="19" height="19" rx="9.5" fill="#EDD258" stroke="#E8EFF5" stroke-width="2"/>
<path d="M166.159 10.89L166.539 6.93H170.799V7.96H167.509L167.309 9.8C167.502 9.67333 167.709 9.57667 167.929 9.51C168.155 9.43667 168.425 9.4 168.739 9.4C169.092 9.4 169.412 9.45333 169.699 9.56C169.985 9.66 170.232 9.80667 170.439 10C170.645 10.1933 170.802 10.43 170.909 10.71C171.022 10.99 171.079 11.3067 171.079 11.66C171.079 12.04 171.012 12.38 170.879 12.68C170.745 12.98 170.562 13.2333 170.329 13.44C170.095 13.6467 169.822 13.8067 169.509 13.92C169.195 14.0267 168.855 14.08 168.489 14.08C168.175 14.08 167.879 14.0433 167.599 13.97C167.325 13.8967 167.075 13.7833 166.849 13.63C166.629 13.4767 166.442 13.28 166.289 13.04C166.142 12.7933 166.045 12.5033 165.999 12.17H167.149C167.189 12.31 167.252 12.4333 167.339 12.54C167.432 12.6467 167.539 12.7367 167.659 12.81C167.779 12.8833 167.909 12.94 168.049 12.98C168.189 13.0133 168.329 13.03 168.469 13.03C168.669 13.03 168.855 13.0067 169.029 12.96C169.202 12.9067 169.352 12.8267 169.479 12.72C169.612 12.6133 169.715 12.48 169.789 12.32C169.862 12.1533 169.899 11.9533 169.899 11.72C169.899 11.2933 169.772 10.9667 169.519 10.74C169.272 10.5133 168.945 10.4 168.539 10.4C168.285 10.4 168.055 10.4433 167.849 10.53C167.642 10.6167 167.455 10.7367 167.289 10.89H166.159Z" fill="#0E192E"/>
<path d="M119 19.4351C118.972 20.8678 118.522 22.1365 117.539 23.1591C114.828 25.9811 112.103 28.7885 109.378 31.6008C108.859 32.1363 108.147 32.1314 107.627 31.596C104.931 28.803 102.215 26.0293 99.5416 23.2122C98.0808 21.6686 97.6407 19.7969 98.2962 17.742C98.961 15.6677 100.408 14.4473 102.491 14.0807C104.949 13.6514 107.389 15.195 108.222 17.6551C108.227 17.6648 108.227 17.6696 108.227 17.6793C108.274 17.824 108.316 17.9783 108.512 17.9735C108.695 17.9687 108.737 17.824 108.779 17.6841C108.99 17.0377 109.294 16.4395 109.734 15.933C111.176 14.2736 112.979 13.6369 115.072 14.2013C117.183 14.7705 118.452 16.2466 118.906 18.4511C118.972 18.7743 119 19.1023 119 19.4351Z" fill="#2A79CC"/>
<rect x="111" y="1" width="19" height="19" rx="9.5" fill="#EDD258" stroke="#E8EFF5" stroke-width="2"/>
<path d="M120.446 11.36C120.606 11.22 120.783 11.0667 120.976 10.9C121.176 10.7333 121.363 10.56 121.536 10.38C121.716 10.1933 121.863 9.99333 121.976 9.78C122.096 9.56667 122.156 9.33667 122.156 9.09C122.156 8.73 122.049 8.44 121.836 8.22C121.623 8 121.316 7.89 120.916 7.89C120.596 7.89 120.326 7.96333 120.106 8.11C119.886 8.25667 119.749 8.45333 119.696 8.7H118.556C118.583 8.39333 118.666 8.12 118.806 7.88C118.953 7.64 119.136 7.44333 119.356 7.29C119.576 7.13667 119.816 7.02667 120.076 6.96C120.343 6.88667 120.646 6.85 120.986 6.85C121.306 6.85 121.606 6.89333 121.886 6.98C122.166 7.06667 122.409 7.19667 122.616 7.37C122.829 7.54333 122.996 7.76333 123.116 8.03C123.243 8.29 123.306 8.59667 123.306 8.95C123.306 9.23 123.269 9.48667 123.196 9.72C123.123 9.95333 123.023 10.17 122.896 10.37C122.769 10.57 122.623 10.7567 122.456 10.93C122.296 11.1033 122.126 11.2667 121.946 11.42C121.706 11.6267 121.493 11.8067 121.306 11.96C121.126 12.1067 120.963 12.24 120.816 12.36C120.669 12.48 120.536 12.59 120.416 12.69C120.296 12.7833 120.183 12.8767 120.076 12.97H123.306V14H118.496V13.05L120.446 11.36Z" fill="#0E192E"/>
<rect x="51" y="22" width="3" height="12" rx="1.5" fill="#2A79CC"/>
<rect x="66" y="18" width="3" height="16" rx="1.5" fill="#2A79CC"/>
<rect x="56" y="12" width="3" height="22" rx="1.5" fill="#2A79CC"/>
<rect x="61" y="26" width="3" height="8" rx="1.5" fill="#2A79CC"/>
<path d="M11.986 33C9.8678 33 7.75476 33 5.63652 33C3.51307 33 1.86323 31.2863 2.00896 29.1715C2.09744 27.8432 2.77403 26.8431 3.95025 26.2233C5.40231 25.4628 6.95326 24.9783 8.56667 24.7127C9.26928 24.5981 9.64921 24.0355 9.43582 23.4313C9.35776 23.2073 9.20162 23.051 9.01426 22.9208C7.6871 22.0197 6.91163 20.7696 6.6462 19.1913C6.1882 16.4254 8.17112 13.6126 10.9399 13.0969C14.0158 12.5239 16.9095 14.5502 17.3311 17.6442C17.6278 19.8476 16.8002 21.6134 14.9891 22.9104C14.5571 23.2229 14.3957 23.6084 14.5467 24.0459C14.6872 24.4522 14.9943 24.6398 15.4002 24.7075C17.0032 24.9575 18.5281 25.4523 19.9802 26.1816C21.3386 26.8639 22.1609 28.3641 21.9735 29.7757C21.7549 31.3905 20.688 32.5729 19.1423 32.9167C18.882 32.974 18.6114 32.9948 18.3408 32.9948C16.2173 33 14.0991 33 11.986 33Z" fill="#2A79CC"/>
</svg>
