<svg width="575" height="56" viewBox="0 0 575 56" fill="none" xmlns="http://www.w3.org/2000/svg">
<g clip-path="url(#clip0_921_9525)">
<rect width="575" height="56" rx="4" fill="#D8E1EA"/>
<rect x="475" y="8" width="92" height="40" rx="4" fill="#2A79CC"/>
<path d="M501.844 26.924H505.18V23.504H507.136V32H505.18V28.688H501.844V32H499.888V23.504H501.844V26.924ZM510.651 30.596L510.135 32H508.023L511.371 23.504H513.459L516.759 32H514.635L514.131 30.596H510.651ZM511.251 28.844H513.531C513.347 28.308 513.159 27.776 512.967 27.248C512.783 26.712 512.595 26.176 512.403 25.64L511.251 28.844ZM521.493 23.06C520.813 23.06 520.257 22.896 519.825 22.568C519.393 22.232 519.149 21.712 519.093 21.008H520.677C520.709 21.24 520.797 21.416 520.941 21.536C521.093 21.656 521.277 21.716 521.493 21.716C521.717 21.716 521.901 21.656 522.045 21.536C522.189 21.416 522.273 21.24 522.297 21.008H523.893C523.829 21.712 523.581 22.232 523.149 22.568C522.717 22.896 522.165 23.06 521.493 23.06ZM519.633 28.628L523.581 23.504H525.141V32H523.185V26.948L519.237 32H517.677V23.504H519.633V28.628ZM526.083 25.292V23.504H533.235V25.292H530.631V32H528.675V25.292H526.083ZM536.145 28.628L540.093 23.504H541.653V32H539.697V26.948L535.749 32H534.189V23.504H536.145V28.628Z" fill="white"/>
<path d="M26.288 34H24.896V23.952H18.784V34H17.392V22.688H26.288V34ZM32.4715 25.472C33.1435 25.472 33.7248 25.5787 34.2155 25.792C34.7062 26.0053 35.1168 26.304 35.4475 26.688C35.7888 27.072 36.0395 27.5307 36.1995 28.064C36.3702 28.5867 36.4555 29.1627 36.4555 29.792C36.4555 30.4213 36.3702 31.0027 36.1995 31.536C36.0395 32.0587 35.7888 32.512 35.4475 32.896C35.1168 33.2693 34.7008 33.5627 34.1995 33.776C33.6982 33.9893 33.1115 34.096 32.4395 34.096C31.7675 34.096 31.1808 33.9893 30.6795 33.776C30.1888 33.5627 29.7728 33.2693 29.4315 32.896C29.1008 32.512 28.8502 32.0587 28.6795 31.536C28.5195 31.0027 28.4395 30.4213 28.4395 29.792C28.4395 29.1627 28.5195 28.5867 28.6795 28.064C28.8502 27.5307 29.1008 27.072 29.4315 26.688C29.7728 26.304 30.1942 26.0053 30.6955 25.792C31.1968 25.5787 31.7888 25.472 32.4715 25.472ZM32.4395 32.896C32.8982 32.896 33.2928 32.816 33.6235 32.656C33.9648 32.496 34.2422 32.2773 34.4555 32C34.6795 31.712 34.8395 31.3813 34.9355 31.008C35.0422 30.6347 35.0955 30.2293 35.0955 29.792C35.0955 29.3653 35.0422 28.9653 34.9355 28.592C34.8395 28.208 34.6795 27.8773 34.4555 27.6C34.2422 27.312 33.9648 27.088 33.6235 26.928C33.2928 26.768 32.8982 26.688 32.4395 26.688C31.9808 26.688 31.5862 26.768 31.2555 26.928C30.9248 27.088 30.6475 27.312 30.4235 27.6C30.2102 27.8773 30.0502 28.208 29.9435 28.592C29.8475 28.9653 29.7995 29.3653 29.7995 29.792C29.7995 30.2293 29.8475 30.6347 29.9435 31.008C30.0502 31.3813 30.2102 31.712 30.4235 32C30.6475 32.2773 30.9248 32.496 31.2555 32.656C31.5862 32.816 31.9808 32.896 32.4395 32.896ZM39.6031 34H38.2751V25.568H39.6351V32.032C39.7098 31.8827 39.8111 31.7227 39.9391 31.552C40.0671 31.3707 40.1685 31.232 40.2431 31.136L44.3231 25.568H45.6671V34H44.3071V27.536C44.2218 27.696 44.1258 27.8507 44.0191 28C43.9231 28.1387 43.8325 28.2613 43.7471 28.368L39.6031 34ZM51.4064 34.096C50.7344 34.096 50.153 33.9893 49.6624 33.776C49.1717 33.5627 48.7664 33.264 48.4464 32.88C48.1264 32.496 47.8864 32.0427 47.7264 31.52C47.5664 30.9973 47.4864 30.4267 47.4864 29.808C47.4864 29.2107 47.5717 28.6507 47.7424 28.128C47.913 27.5947 48.1637 27.136 48.4944 26.752C48.825 26.3573 49.241 26.048 49.7424 25.824C50.2437 25.5893 50.8517 25.472 51.5664 25.472C51.993 25.472 52.3717 25.52 52.7024 25.616C53.033 25.7013 53.3424 25.8453 53.6304 26.048C53.929 26.24 54.185 26.496 54.3984 26.816C54.6117 27.136 54.7664 27.5253 54.8624 27.984H53.4704C53.3104 27.5147 53.0544 27.1787 52.7024 26.976C52.361 26.7733 51.9557 26.6773 51.4864 26.688C51.0277 26.688 50.6224 26.7787 50.2704 26.96C49.929 27.1307 49.6517 27.36 49.4384 27.648C49.2357 27.936 49.0864 28.272 48.9904 28.656C48.8944 29.0293 48.8464 29.4133 48.8464 29.808C48.8464 30.224 48.8944 30.6187 48.9904 30.992C49.097 31.3653 49.2517 31.696 49.4544 31.984C49.6677 32.2613 49.9397 32.4853 50.2704 32.656C50.601 32.816 50.9957 32.896 51.4544 32.896C51.6784 32.896 51.897 32.8747 52.1104 32.832C52.3344 32.7893 52.537 32.72 52.7184 32.624C52.9104 32.5173 53.0757 32.3787 53.2144 32.208C53.353 32.0373 53.4544 31.8293 53.5184 31.584H54.9264C54.841 32.0213 54.6864 32.4 54.4624 32.72C54.249 33.0293 53.9824 33.2907 53.6624 33.504C53.3424 33.7067 52.9904 33.856 52.6064 33.952C52.2224 34.048 51.8224 34.096 51.4064 34.096ZM56.6501 34V25.568H58.0101V29.2H59.4821L61.9781 25.568H63.5301L60.7141 29.584L63.7701 34H62.1701L59.6421 30.384H58.0101V34H56.6501ZM75.4835 25.568V26.768H72.5875V34H71.2275V26.768H68.3315V25.568H75.4835ZM80.409 25.472C81.081 25.472 81.6623 25.5787 82.153 25.792C82.6437 26.0053 83.0543 26.304 83.385 26.688C83.7263 27.072 83.977 27.5307 84.137 28.064C84.3077 28.5867 84.393 29.1627 84.393 29.792C84.393 30.4213 84.3077 31.0027 84.137 31.536C83.977 32.0587 83.7263 32.512 83.385 32.896C83.0543 33.2693 82.6383 33.5627 82.137 33.776C81.6357 33.9893 81.049 34.096 80.377 34.096C79.705 34.096 79.1183 33.9893 78.617 33.776C78.1263 33.5627 77.7103 33.2693 77.369 32.896C77.0383 32.512 76.7877 32.0587 76.617 31.536C76.457 31.0027 76.377 30.4213 76.377 29.792C76.377 29.1627 76.457 28.5867 76.617 28.064C76.7877 27.5307 77.0383 27.072 77.369 26.688C77.7103 26.304 78.1317 26.0053 78.633 25.792C79.1343 25.5787 79.7263 25.472 80.409 25.472ZM80.377 32.896C80.8357 32.896 81.2303 32.816 81.561 32.656C81.9023 32.496 82.1797 32.2773 82.393 32C82.617 31.712 82.777 31.3813 82.873 31.008C82.9797 30.6347 83.033 30.2293 83.033 29.792C83.033 29.3653 82.9797 28.9653 82.873 28.592C82.777 28.208 82.617 27.8773 82.393 27.6C82.1797 27.312 81.9023 27.088 81.561 26.928C81.2303 26.768 80.8357 26.688 80.377 26.688C79.9183 26.688 79.5237 26.768 79.193 26.928C78.8623 27.088 78.585 27.312 78.361 27.6C78.1477 27.8773 77.9877 28.208 77.881 28.592C77.785 28.9653 77.737 29.3653 77.737 29.792C77.737 30.2293 77.785 30.6347 77.881 31.008C77.9877 31.3813 78.1477 31.712 78.361 32C78.585 32.2773 78.8623 32.496 79.193 32.656C79.5237 32.816 79.9183 32.896 80.377 32.896ZM86.2126 25.568H89.4766C90.0206 25.568 90.4846 25.6053 90.8686 25.68C91.2633 25.7547 91.594 25.888 91.8606 26.08C92.0953 26.24 92.2766 26.4533 92.4046 26.72C92.5433 26.9867 92.6126 27.3013 92.6126 27.664C92.6126 28.5067 92.234 29.1093 91.4766 29.472C92.0526 29.6 92.4686 29.8507 92.7246 30.224C92.9806 30.5973 93.1086 31.024 93.1086 31.504C93.098 31.952 93.0233 32.32 92.8846 32.608C92.746 32.8853 92.5486 33.1307 92.2926 33.344C92.0473 33.5467 91.7433 33.7067 91.3806 33.824C91.018 33.9413 90.6073 34 90.1486 34H86.2126V25.568ZM87.6046 26.768V29.168H88.7726C89.0393 29.168 89.3113 29.1627 89.5886 29.152C89.866 29.1307 90.1113 29.0827 90.3246 29.008C90.5913 28.9227 90.8153 28.784 90.9966 28.592C91.178 28.4 91.274 28.1707 91.2846 27.904C91.2846 27.5947 91.2153 27.3707 91.0766 27.232C90.9486 27.0827 90.7886 26.976 90.5966 26.912C90.4046 26.8373 90.1966 26.7947 89.9726 26.784C89.7486 26.7733 89.5406 26.768 89.3486 26.768H87.6046ZM87.6046 32.816H89.8286C90.074 32.816 90.3086 32.8 90.5326 32.768C90.7673 32.736 90.97 32.6773 91.1406 32.592C91.3113 32.496 91.45 32.368 91.5566 32.208C91.6633 32.048 91.722 31.8453 91.7326 31.6C91.7326 31.28 91.658 31.0293 91.5086 30.848C91.3593 30.656 91.1566 30.5173 90.9006 30.432C90.6873 30.368 90.4473 30.3307 90.1806 30.32C89.914 30.3093 89.6366 30.304 89.3486 30.304L87.6046 30.32V32.816ZM100.515 32.928C100.333 33.1733 100.125 33.3707 99.8906 33.52C99.656 33.6693 99.4106 33.7867 99.1546 33.872C98.9093 33.9573 98.6586 34.016 98.4026 34.048C98.1573 34.08 97.912 34.096 97.6666 34.096C97.272 34.096 96.8986 34.048 96.5466 33.952C96.1946 33.856 95.8746 33.7013 95.5866 33.488C95.3093 33.2747 95.0853 33.008 94.9146 32.688C94.7546 32.368 94.6746 32.0053 94.6746 31.6C94.6746 31.12 94.76 30.72 94.9306 30.4C95.112 30.0693 95.352 29.8027 95.6506 29.6C95.9493 29.3973 96.2906 29.2587 96.6746 29.184C97.0693 29.0987 97.4853 29.056 97.9226 29.056H100.403C100.403 28.3413 100.248 27.776 99.9386 27.36C99.6293 26.9333 99.1066 26.7093 98.3706 26.688C97.9226 26.688 97.528 26.7627 97.1866 26.912C96.8453 27.0613 96.6106 27.3067 96.4826 27.648H95.0266C95.1013 27.264 95.2506 26.9387 95.4746 26.672C95.6986 26.3947 95.9653 26.1707 96.2746 26C96.584 25.8187 96.92 25.6853 97.2826 25.6C97.6453 25.5147 98.008 25.472 98.3706 25.472C99 25.472 99.528 25.5787 99.9546 25.792C100.392 25.9947 100.744 26.2667 101.011 26.608C101.277 26.9387 101.464 27.344 101.571 27.824C101.677 28.304 101.731 28.8427 101.731 29.44V34H100.595L100.515 32.928ZM98.9146 30.192C98.6586 30.192 98.36 30.1973 98.0186 30.208C97.688 30.208 97.368 30.24 97.0586 30.304C96.7493 30.368 96.4986 30.5013 96.3066 30.704C96.1253 30.9067 96.0346 31.1733 96.0346 31.504C96.0346 31.7493 96.0826 31.9573 96.1786 32.128C96.2746 32.2987 96.4026 32.4427 96.5626 32.56C96.7333 32.6773 96.9253 32.7627 97.1386 32.816C97.352 32.8693 97.5706 32.896 97.7946 32.896C98.5946 32.896 99.224 32.704 99.6826 32.32C100.152 31.9253 100.392 31.3547 100.403 30.608V30.192H98.9146ZM105.198 37.04H103.838V25.568H105.134L105.198 26.864C105.486 26.4053 105.875 26.064 106.366 25.84C106.867 25.6053 107.406 25.4827 107.982 25.472C108.632 25.472 109.182 25.584 109.63 25.808C110.088 26.0213 110.467 26.3253 110.766 26.72C111.075 27.104 111.304 27.5627 111.454 28.096C111.603 28.6187 111.678 29.184 111.678 29.792C111.678 30.4107 111.603 30.9813 111.454 31.504C111.304 32.0267 111.075 32.48 110.766 32.864C110.456 33.248 110.067 33.552 109.598 33.776C109.128 33.9893 108.568 34.096 107.918 34.096C107.278 34.096 106.734 33.9947 106.286 33.792C105.838 33.5893 105.475 33.3227 105.198 32.992V37.04ZM107.806 32.896C108.264 32.896 108.648 32.816 108.958 32.656C109.278 32.4853 109.534 32.2613 109.726 31.984C109.928 31.696 110.072 31.3653 110.158 30.992C110.254 30.6187 110.307 30.2187 110.318 29.792C110.318 29.3653 110.27 28.9653 110.174 28.592C110.088 28.208 109.944 27.8773 109.742 27.6C109.539 27.3227 109.272 27.104 108.942 26.944C108.622 26.7733 108.232 26.688 107.774 26.688C107.23 26.688 106.76 26.8373 106.366 27.136C105.971 27.424 105.672 27.792 105.47 28.24C105.352 28.4853 105.272 28.7413 105.23 29.008C105.187 29.264 105.166 29.5307 105.166 29.808C105.166 30.128 105.187 30.4267 105.23 30.704C105.272 30.9707 105.352 31.2267 105.47 31.472C105.672 31.8773 105.966 32.2187 106.35 32.496C106.744 32.7627 107.23 32.896 107.806 32.896ZM117.143 25.472C117.815 25.472 118.397 25.5787 118.887 25.792C119.378 26.0053 119.789 26.304 120.119 26.688C120.461 27.072 120.711 27.5307 120.871 28.064C121.042 28.5867 121.127 29.1627 121.127 29.792C121.127 30.4213 121.042 31.0027 120.871 31.536C120.711 32.0587 120.461 32.512 120.119 32.896C119.789 33.2693 119.373 33.5627 118.871 33.776C118.37 33.9893 117.783 34.096 117.111 34.096C116.439 34.096 115.853 33.9893 115.351 33.776C114.861 33.5627 114.445 33.2693 114.103 32.896C113.773 32.512 113.522 32.0587 113.351 31.536C113.191 31.0027 113.111 30.4213 113.111 29.792C113.111 29.1627 113.191 28.5867 113.351 28.064C113.522 27.5307 113.773 27.072 114.103 26.688C114.445 26.304 114.866 26.0053 115.367 25.792C115.869 25.5787 116.461 25.472 117.143 25.472ZM117.111 32.896C117.57 32.896 117.965 32.816 118.295 32.656C118.637 32.496 118.914 32.2773 119.127 32C119.351 31.712 119.511 31.3813 119.607 31.008C119.714 30.6347 119.767 30.2293 119.767 29.792C119.767 29.3653 119.714 28.9653 119.607 28.592C119.511 28.208 119.351 27.8773 119.127 27.6C118.914 27.312 118.637 27.088 118.295 26.928C117.965 26.768 117.57 26.688 117.111 26.688C116.653 26.688 116.258 26.768 115.927 26.928C115.597 27.088 115.319 27.312 115.095 27.6C114.882 27.8773 114.722 28.208 114.615 28.592C114.519 28.9653 114.471 29.3653 114.471 29.792C114.471 30.2293 114.519 30.6347 114.615 31.008C114.722 31.3813 114.882 31.712 115.095 32C115.319 32.2773 115.597 32.496 115.927 32.656C116.258 32.816 116.653 32.896 117.111 32.896ZM122.947 25.568H126.211C126.755 25.568 127.219 25.6053 127.603 25.68C127.998 25.7547 128.328 25.888 128.595 26.08C128.83 26.24 129.011 26.4533 129.139 26.72C129.278 26.9867 129.347 27.3013 129.347 27.664C129.347 28.5067 128.968 29.1093 128.211 29.472C128.787 29.6 129.203 29.8507 129.459 30.224C129.715 30.5973 129.843 31.024 129.843 31.504C129.832 31.952 129.758 32.32 129.619 32.608C129.48 32.8853 129.283 33.1307 129.027 33.344C128.782 33.5467 128.478 33.7067 128.115 33.824C127.752 33.9413 127.342 34 126.883 34H122.947V25.568ZM124.339 26.768V29.168H125.507C125.774 29.168 126.046 29.1627 126.323 29.152C126.6 29.1307 126.846 29.0827 127.059 29.008C127.326 28.9227 127.55 28.784 127.731 28.592C127.912 28.4 128.008 28.1707 128.019 27.904C128.019 27.5947 127.95 27.3707 127.811 27.232C127.683 27.0827 127.523 26.976 127.331 26.912C127.139 26.8373 126.931 26.7947 126.707 26.784C126.483 26.7733 126.275 26.768 126.083 26.768H124.339ZM124.339 32.816H126.563C126.808 32.816 127.043 32.8 127.267 32.768C127.502 32.736 127.704 32.6773 127.875 32.592C128.046 32.496 128.184 32.368 128.291 32.208C128.398 32.048 128.456 31.8453 128.467 31.6C128.467 31.28 128.392 31.0293 128.243 30.848C128.094 30.656 127.891 30.5173 127.635 30.432C127.422 30.368 127.182 30.3307 126.915 30.32C126.648 30.3093 126.371 30.304 126.083 30.304L124.339 30.32V32.816Z" fill="#878C9E"/>
</g>
<defs>
<clipPath id="clip0_921_9525">
<rect width="575" height="56" fill="white"/>
</clipPath>
</defs>
</svg>
